G04 ================== begin FILE IDENTIFICATION RECORD ==================*
G04 Layout Name:  PULSE_MODULATION.brd*
G04 Film Name:    BOTTOM*
G04 File Format:  Gerber RS274X*
G04 File Origin:  Cadence Allegro 17.2-P019*
G04 Origin Date:  Tue Jul 30 17:44:44 2019*
G04 *
G04 Layer:  ETCH/BOTTOM*
G04 Layer:  PIN/BOTTOM*
G04 Layer:  VIA CLASS/BOTTOM*
G04 *
G04 Offset:    (0.000 0.000)*
G04 Mirror:    No*
G04 Mode:      Positive*
G04 Rotation:  0*
G04 FullContactRelief:  No*
G04 UndefLineWidth:     0.000*
G04 ================== end FILE IDENTIFICATION RECORD ====================*
%FSLAX25Y25*MOMM*%
%IR0*IPPOS*OFA0.00000B0.00000*MIA0B0*SFA1.00000B1.00000*%
%ADD11C,1.524*%
%ADD13C,1.651*%
%ADD12R,1.524X1.524*%
%ADD15O,1.524X1.016*%
%ADD14R,1.524X1.016*%
%ADD10C,.635*%
%ADD16C,1.*%
%ADD17C,.5*%
%ADD19C,2.528*%
%ADD18C,2.656*%
G75*
%LPD*%
G75*
G36*
G01X754200Y500000D02*
Y754200D01*
X500000D01*
Y2111600D01*
G03X546500Y2355500I0J126383D01*
G02Y2374500I3796J9500D01*
G03Y2609500I-46500J117500D01*
G02Y2628500I3796J9500D01*
G03X577100Y2645800I-46303J117612D01*
G01X1315400D01*
X1330900Y2630300D01*
X1446900D01*
G03X1641500Y2684000I77062J100191D01*
G02X1660500I9500J-3796D01*
G03X1879600Y2655300I117522J46508D01*
G01X1930400D01*
G03X1956800Y2628900I101600J75200D01*
G01Y2318400D01*
X2127900Y2147300D01*
X4540900D01*
X4687300Y2000900D01*
Y1824000D01*
G03X4837700I75200J-109500D01*
G01Y2063100D01*
X4603100Y2297700D01*
X2190100D01*
X2107200Y2380600D01*
Y2628900D01*
G03X2149500Y2684000I-75244J101551D01*
G02X2168500I9500J-3796D01*
G03X2387600Y2655300I117522J46508D01*
G01X2946400D01*
G03X3165500Y2684000I101578J75208D01*
G02X3184500I9500J-3796D01*
G03Y2777000I117500J46500D01*
G02X3165500I-9500J3796D01*
G03X2946400Y2805700I-117522J-46508D01*
G01X2387600D01*
G03X2168500Y2777000I-101578J-75208D01*
G02X2149500I-9500J3796D01*
G03X1930400Y2805700I-117522J-46508D01*
G01X1879600D01*
G03X1660500Y2777000I-101578J-75208D01*
G02X1641500I-9500J3796D01*
G03X1625200Y2806200I-117533J-46460D01*
G01X1624200Y2807600D01*
Y2843000D01*
X1729000Y2947800D01*
X3539100D01*
X3646300Y2840600D01*
Y2807600D01*
X3645300Y2806200D01*
G03X3846700Y2807600I101231J-75697D01*
G01Y2923600D01*
X3622100Y3148200D01*
X1646000D01*
X1423800Y2926000D01*
Y2830700D01*
X1413900D01*
X1398400Y2846200D01*
X577100D01*
G03X546500Y2863500I-76903J-100312D01*
G02Y2882500I3796J9500D01*
G03X500000Y3126400I-46500J117517D01*
G01Y3865600D01*
G03X546500Y4109500I0J126383D01*
G02Y4128500I3796J9500D01*
G03X601600Y4170800I-46451J117544D01*
G01X1310800D01*
X1365800Y4115800D01*
X2394100D01*
X2488200Y4209900D01*
Y4279900D01*
G03X2295500Y4428000I-75174J101603D01*
G02X2276500I-9500J3796D01*
G03X2041500I-117500J-46500D01*
G02X2022500I-9500J3796D01*
G03X1787500I-117500J-46500D01*
G02X1768500I-9500J3796D01*
G03X1737400Y4473700I-117497J-46528D01*
G02X1737200Y4488400I7004J7447D01*
G01X1809100Y4560300D01*
X2953400D01*
X3036300Y4477400D01*
Y4046500D01*
G03X3186700I75200J-109500D01*
G01Y4539600D01*
X3081500Y4644900D01*
G02X3088700Y4662300I7188J7215D01*
G01X5292500D01*
X5360800Y4594000D01*
Y4458600D01*
G03X5343500Y4428000I100312J-76903D01*
G02X5324500I-9500J3796D01*
G03X5089500I-117500J-46500D01*
G02X5070500I-9500J3796D01*
G03X4844400Y4446100I-117499J-46528D01*
G02X4825400Y4451300I-8790J5194D01*
G01Y4457700D01*
G03X4775200Y4507900I-50200J0D01*
G01X4622800D01*
G03X4572600Y4457700I0J-50200D01*
G01Y4305300D01*
G03X4622800Y4255100I50200J0D01*
G01X4775200D01*
G03X4825400Y4305300I0J50200D01*
G01Y4311700D01*
G02X4844400Y4316900I10210J6D01*
G03X4877800Y4279900I108675J64526D01*
G01Y4222200D01*
X4858300Y4202700D01*
X4279600D01*
X4215100Y4267200D01*
G02X4215600Y4282100I7210J7216D01*
G03X4018000Y4456700I-88158J99344D01*
G01X3729000D01*
G03Y4306300I-109500J-75200D01*
G01X4018000D01*
G03X4052300Y4272000I109500J75200D01*
G01Y4217400D01*
X4217400Y4052300D01*
X4920500D01*
X5028200Y4160000D01*
Y4279900D01*
G03X5070500Y4335000I-75244J101551D01*
G02X5089500I9500J-3796D01*
G03X5131800Y4279900I117544J46451D01*
G01Y4158600D01*
X4985400Y4012200D01*
X4237000D01*
G03Y3861800I-109500J-75200D01*
G01X5047600D01*
X5238100Y4052300D01*
X7144400D01*
X7290800Y3905900D01*
Y3538500D01*
G03X7441200I75200J-109500D01*
G01Y3968100D01*
X7206600Y4202700D01*
X5282200D01*
Y4279900D01*
G03X5324500Y4335000I-75244J101551D01*
G02X5343500I9500J-3796D01*
G03X5561200Y4458600I117530J46512D01*
G01Y4594000D01*
X5629500Y4662300D01*
X6626000D01*
X6694300Y4594000D01*
Y4458600D01*
G03X6677000Y4428000I100312J-76903D01*
G02X6658000I-9500J3796D01*
G03X6423000I-117500J-46500D01*
G02X6404000I-9500J3796D01*
G03X6177900Y4446100I-117499J-46528D01*
G02X6158900Y4451300I-8790J5194D01*
G01Y4457700D01*
G03X6108700Y4507900I-50200J0D01*
G01X5956300D01*
G03X5906100Y4457700I0J-50200D01*
G01Y4305300D01*
G03X5956300Y4255100I50200J0D01*
G01X6108700D01*
G03X6158900Y4305300I0J50200D01*
G01Y4311700D01*
G02X6177900Y4316900I10210J6D01*
G03X6404000Y4335000I108601J64628D01*
G02X6423000I9500J-3796D01*
G03X6658000I117500J46500D01*
G02X6677000I9500J-3796D01*
G03X6894700Y4458600I117530J46512D01*
G01Y4677000D01*
X6709000Y4862700D01*
X5546500D01*
X5461000Y4777200D01*
X5375500Y4862700D01*
X1819500D01*
X1751200Y4931000D01*
Y5066400D01*
G03X1768500Y5097000I-100312J76903D01*
G02X1787500I9500J-3796D01*
G03X2022500I117500J46500D01*
G02X2041500I9500J-3796D01*
G03X2267600Y5078900I117499J46528D01*
G02X2286600Y5073700I8790J-5194D01*
G01Y5067300D01*
G03X2336800Y5017100I50200J0D01*
G01X2489200D01*
G03X2539400Y5067300I0J50200D01*
G01Y5219700D01*
G03X2513200Y5263800I-50215J0D01*
G01Y5546500D01*
X2645000Y5678300D01*
X4721000D01*
X4852800Y5546500D01*
Y5220600D01*
G03X4835500Y5190000I100312J-76903D01*
G02X4816500I-9500J3796D01*
G03X4618300Y5046200I-117527J-46501D01*
G02X4611800Y5028200I-6554J-7807D01*
G01X4285600D01*
X4202700Y5111100D01*
Y5288000D01*
G03X4052300I-75200J109500D01*
G01Y5048900D01*
X4223400Y4877800D01*
X5047600D01*
X5188300Y5018500D01*
X5190800Y5018100D01*
G03X5324500Y5097000I16148J125367D01*
G02X5343500I9500J-3796D01*
G03Y5190000I117500J46500D01*
G02X5324500I-9500J3796D01*
G03X5089500I-117500J-46500D01*
G02X5070500I-9500J3796D01*
G03X5053200Y5220600I-117612J-46303D01*
G01Y5546500D01*
X5185000Y5678300D01*
X6054500D01*
X6186300Y5546500D01*
Y5220600D01*
G03X6169000Y5190000I100312J-76903D01*
G02X6150000I-9500J3796D01*
G03Y5097000I-117500J-46500D01*
G02X6169000I9500J-3796D01*
G03X6404000I117500J46500D01*
G02X6423000I9500J-3796D01*
G03X6658000I117500J46500D01*
G02X6677000I9500J-3796D01*
G03Y5190000I117500J46500D01*
G02X6658000I-9500J3796D01*
G03X6615700Y5245100I-117544J-46451D01*
G01Y5302900D01*
X6698600Y5385800D01*
X7822500D01*
X7925800Y5282500D01*
Y5084300D01*
G02X7921100Y5079300I-5086J72D01*
G03X7874600Y5029200I3739J-50100D01*
G01Y4876800D01*
G03X7924800Y4826600I50200J0D01*
G01X8077200D01*
G03X8127400Y4876800I0J50200D01*
G01Y5029200D01*
G03X8080900Y5079300I-50239J0D01*
G02X8076200Y5084300I386J5072D01*
G01Y5344700D01*
X7884700Y5536200D01*
X6636400D01*
X6465300Y5365100D01*
Y5245100D01*
G03X6423000Y5190000I75244J-101551D01*
G02X6404000I-9500J3796D01*
G03X6386700Y5220600I-117612J-46303D01*
G01Y5629500D01*
X6137500Y5878700D01*
X5102000D01*
X4953000Y5729700D01*
X4804000Y5878700D01*
X2562000D01*
X2312800Y5629500D01*
Y5263800D01*
G03X2286600Y5219700I24015J-44100D01*
G01Y5213300D01*
G02X2267600Y5208100I-10210J-6D01*
G03X2041500Y5190000I-108601J-64628D01*
G02X2022500I-9500J3796D01*
G03X1980200Y5245100I-117544J-46451D01*
G01Y5315000D01*
X1822500Y5472700D01*
X667300D01*
X517400Y5322900D01*
G02X500000Y5330100I-7215J7188D01*
G01Y6245800D01*
X754200D01*
Y6500000D01*
X9245800D01*
Y6245800D01*
X9500000D01*
Y3380400D01*
G03X9453500Y3136500I0J-126383D01*
G02Y3117500I-3796J-9500D01*
G03X9500000Y2873600I46500J-117517D01*
G01Y754200D01*
X9245800D01*
Y500000D01*
X754200D01*
G37*
%LPC*%
G75*
G36*
G01X4037600Y3694700D02*
X4202700Y3529600D01*
Y3475000D01*
G02X4039400Y3464900I-75191J-109487D01*
G03X4039900Y3479800I-6710J7684D01*
G01X3975400Y3544300D01*
X2692100D01*
X2627600Y3479800D01*
G03X2628100Y3464900I7210J-7216D01*
G02X2464800Y3475000I-88109J-99387D01*
G01Y3529600D01*
X2629900Y3694700D01*
X4037600D01*
G37*
G36*
G01X4179300Y2888600D02*
X4350400Y3059700D01*
X4636100D01*
Y3162300D01*
G02X4686300Y3212500I50200J0D01*
G01X4838700D01*
G02X4888900Y3162300I0J-50200D01*
G01Y3060700D01*
G02X4878200Y3029700I-50257J0D01*
G02X4866400Y2921000I-90309J-45187D01*
G02X4787900Y2756500I-78500J-63520D01*
G01X4737100D01*
G02X4643400Y2895300I0J101027D01*
G03X4634000Y2909300I-9443J3816D01*
G01X4412600D01*
X4340700Y2837400D01*
G03X4340900Y2822700I7204J-7253D01*
G02X4179300Y2832100I-86437J-92207D01*
G01Y2888600D01*
G37*
G36*
G01X2022500Y3890500D02*
G02Y3983500I-117500J46500D01*
G03X2041500I9500J3796D01*
G02Y3890500I117500J-46500D01*
G03X2022500I-9500J-3796D01*
G37*
G36*
G01X4880000Y3636500D02*
G02Y3729500I-117500J46500D01*
G03X4899000I9500J3796D01*
G02Y3636500I117500J-46500D01*
G03X4880000I-9500J-3796D01*
G37*
G36*
G01X8280400Y2424700D02*
G02Y2274300I101600J-75200D01*
G01X6636400D01*
X6465300Y2445400D01*
Y2628900D01*
G02X6423000Y2684000I75244J101551D01*
G03X6404000I-9500J-3796D01*
G02X6169000I-117500J46500D01*
G03X6150000I-9500J-3796D01*
G02Y2777000I-117500J46500D01*
G03X6169000I9500J3796D01*
G02X6404000I117500J-46500D01*
G03X6423000I9500J3796D01*
G02X6658000I117500J-46500D01*
G03X6677000I9500J3796D01*
G02Y2684000I117500J-46500D01*
G03X6658000I-9500J-3796D01*
G02X6615700Y2628900I-117544J46451D01*
G01Y2507600D01*
X6698600Y2424700D01*
X8280400D01*
G37*
G36*
G01X1600200Y1842100D02*
X1447800D01*
G02X1397600Y1892300I0J50200D01*
G01Y2044700D01*
G02X1447800Y2094900I50200J0D01*
G01X1600200D01*
G02X1650400Y2044700I0J-50200D01*
G01Y2038300D01*
G03X1669400Y2033100I10210J-6D01*
G02X1895500Y2015000I108601J-64628D01*
G03X1914500I9500J3796D01*
G02X2149500I117500J-46500D01*
G03X2168500I9500J3796D01*
G02Y1922000I117500J-46500D01*
G03X2149500I-9500J-3796D01*
G02X1914500I-117500J46500D01*
G03X1895500I-9500J-3796D01*
G02X1669400Y1903900I-117499J46528D01*
G03X1650400Y1898700I-8790J-5194D01*
G01Y1892300D01*
G02X1600200Y1842100I-50200J0D01*
G37*
G36*
G01X5888000Y1639300D02*
G02Y1789700I-109500J75200D01*
G01X6191800D01*
X6211300Y1809200D01*
Y1866900D01*
G02X6177900Y1903900I75275J101526D01*
G03X6158900Y1898700I-8790J-5194D01*
G01Y1892300D01*
G02X6108700Y1842100I-50200J0D01*
G01X5956300D01*
G02X5906100Y1892300I0J50200D01*
G01Y2044700D01*
G02X5956300Y2094900I50200J0D01*
G01X6108700D01*
G02X6158900Y2044700I0J-50200D01*
G01Y2038300D01*
G03X6177900Y2033100I10210J-6D01*
G02X6404000Y2015000I108601J-64628D01*
G03X6423000I9500J3796D01*
G02X6658000I117500J-46500D01*
G03X6677000I9500J3796D01*
G02Y1922000I117500J-46500D01*
G03X6658000I-9500J-3796D01*
G02X6423000I-117500J46500D01*
G03X6404000I-9500J-3796D01*
G02X6361700Y1866900I-117544J46451D01*
G01Y1809100D01*
X6381100Y1789700D01*
X7510500D01*
G02Y1639300I109500J-75200D01*
G01X6318900D01*
X6286400Y1671700D01*
X6254000Y1639300D01*
X5888000D01*
G37*
G54D19*
X4000500Y2984500D03*
X8636000Y2603500D03*
X8890000Y2349500D03*
X8991600Y4953000D03*
G54D18*
X1524000Y3365500D03*
X3111500D03*
X3619500Y5397500D03*
X8001000Y4064000D03*
X8636000Y1714500D03*
X8382000Y3429000D03*
X9017000Y4064000D03*
%LPD*%
G75*
G54D10*
X500000Y500000D03*
Y6500000D03*
X9500000Y500000D03*
Y6500000D03*
G54D11*
X500000Y2238000D03*
Y2492000D03*
Y3000000D03*
Y2746000D03*
Y3992000D03*
Y4246000D03*
Y4500000D03*
X1778000Y1968500D03*
X1524000Y2730500D03*
X1778000D03*
X1905000Y3937000D03*
X1651000Y4381500D03*
X1905000D03*
X1651000Y5143500D03*
X1905000D03*
X2286000Y1968500D03*
X2032000D03*
Y2730500D03*
X2286000D03*
X2159000Y3937000D03*
Y4381500D03*
X2413000D03*
X2159000Y5143500D03*
X3048000Y2730500D03*
X3302000D03*
X4254500D03*
X3746500D03*
X4000500Y2984500D03*
X4762500Y3683000D03*
X5016500D03*
X4953000Y4381500D03*
Y5143500D03*
X4699000D03*
X5461000Y4381500D03*
X5207000D03*
X5461000Y5143500D03*
X5207000D03*
X6540500Y1968500D03*
X6286500D03*
X6540500Y2730500D03*
X6286500D03*
X6032500D03*
X6540500Y4381500D03*
X6286500D03*
X6540500Y5143500D03*
X6286500D03*
X6032500D03*
X6794500Y1968500D03*
Y2730500D03*
Y4381500D03*
Y5143500D03*
X8382000Y2349500D03*
X8636000Y2603500D03*
X8890000Y2349500D03*
X9500000Y3000000D03*
Y3254000D03*
X8991600Y4953000D03*
G54D12*
X1524000Y1968500D03*
X2413000Y5143500D03*
X4699000Y4381500D03*
X6032500Y1968500D03*
Y4381500D03*
X8001000Y4953000D03*
G54D13*
X1524000Y3365500D03*
X2540000D03*
X3111500D03*
Y3937000D03*
X4127500Y3365500D03*
Y3937000D03*
Y4381500D03*
X3619500D03*
X4127500Y5397500D03*
X3619500D03*
X4762500Y1714500D03*
X5778500D03*
X7620000D03*
X7366000Y3429000D03*
X8001000Y4064000D03*
X8636000Y1714500D03*
X8382000Y3429000D03*
X9017000Y4064000D03*
G54D14*
X4762500Y3111500D03*
G54D15*
Y2984500D03*
Y2857500D03*
G54D16*
G01X698500Y2476500D02*
X683000Y2492000D01*
G01D02*
X500000D01*
G01Y2746000D02*
X1356900D01*
X1372400Y2730500D01*
X1524000D01*
G01X3746500D02*
Y2882100D01*
X3580600Y3048000D01*
X1687500D01*
X1524000Y2884500D01*
Y2730500D01*
G01X5461000Y4635500D02*
X5334000Y4762500D01*
X1778000D01*
X1651000Y4889500D01*
Y5143500D01*
G01X2159000Y4381500D02*
Y4508500D01*
G01X4953000Y5588000D02*
X4762500Y5778500D01*
X2603500D01*
X2413000Y5588000D01*
Y5143500D01*
G01X6286500D02*
Y5588000D01*
X6096000Y5778500D01*
X5143500D01*
X4953000Y5588000D01*
G01D02*
Y5143500D01*
G01X6794500Y4381500D02*
Y4635500D01*
X6667500Y4762500D01*
X5588000D01*
X5461000Y4635500D01*
G01Y4381500D02*
Y4635500D01*
G54D17*
G01X500000Y3992000D02*
X631500D01*
G01X500000Y3860500D02*
Y3992000D01*
G01X1905000Y5143500D02*
Y5283900D01*
X1791400Y5397500D01*
X698400D01*
X500000Y5199100D01*
Y4500000D01*
G01X2413000Y4381500D02*
Y4241000D01*
X2363000Y4191000D01*
X1396900D01*
X1341900Y4246000D01*
X500000D01*
G01X1524000Y1837000D02*
Y1968500D01*
G01X1392500D02*
X1524000D01*
G01D02*
Y2100000D01*
G01X1778000Y2730500D02*
X2032000D01*
G01X1651000Y4381500D02*
Y4508500D01*
X1778000Y4635500D01*
X2984500D01*
X3111500Y4508500D01*
Y3937000D01*
G01X2032000Y2730500D02*
Y2349500D01*
X2159000Y2222500D01*
X4572000D01*
X4762500Y2032000D01*
Y1714500D01*
G01X2540000Y3365500D02*
Y3498500D01*
X2661000Y3619500D01*
X4006500D01*
X4127500Y3498500D01*
Y3365500D01*
G01X2286000Y2730500D02*
X3048000D01*
G01X2159000Y3937000D02*
X2290500D01*
G01X2159000D02*
Y4068500D01*
G01Y3805500D02*
Y3937000D01*
G01X3302000Y2599000D02*
Y2730500D01*
G01D02*
X3433500D01*
G01X3302000D02*
Y2862000D01*
G01X3111500Y3365500D02*
X3249400D01*
G01X2973600D02*
X3111500D01*
G01D02*
Y3503400D01*
G01Y3227600D02*
Y3365500D01*
G01X5207000Y4127500D02*
X5016500Y3937000D01*
X4127500D01*
G01Y4381500D02*
Y4248500D01*
X4248500Y4127500D01*
X4889400D01*
X4953000Y4191100D01*
Y4381500D01*
G01X3619500D02*
X4127500D01*
G01X3619500Y5397500D02*
X3757400D01*
G01X3481600D02*
X3619500D01*
G01D02*
Y5535400D01*
G01Y5259600D02*
Y5397500D01*
G01X5207000Y5143500D02*
X5016500Y4953000D01*
X4254500D01*
X4127500Y5080000D01*
Y5397500D01*
G01X4762500Y2984500D02*
X4381500D01*
X4254500Y2857500D01*
Y2730500D01*
G01X5016500Y3683000D02*
X5148000D01*
G01X5016500D02*
Y3814500D01*
G01Y3551500D02*
Y3683000D01*
G01X7366000Y3429000D02*
Y3937000D01*
X7175500Y4127500D01*
X5207000D01*
G01Y4381500D02*
Y4127500D01*
G01X7620000Y1714500D02*
X6350000D01*
X6286500Y1778000D01*
Y1778100D01*
G01D02*
Y1968500D01*
G01X5778500Y1714500D02*
X6222900D01*
X6286500Y1778100D01*
G01X6540500Y1837000D02*
Y1968500D01*
G01D02*
Y2100000D01*
G01X8382000Y2349500D02*
X6667500D01*
X6540500Y2476500D01*
Y2730500D01*
G01Y4381500D02*
Y4513000D01*
G01Y4250000D02*
Y4381500D01*
G01X8001000Y4953000D02*
Y5313600D01*
X7853600Y5461000D01*
X6667500D01*
X6540500Y5334000D01*
Y5143500D01*
G01X7863100Y4064000D02*
X8001000D01*
G01D02*
X8138900D01*
G01X8001000D02*
Y4201900D01*
G01Y3926100D02*
Y4064000D01*
G01X9368500Y3254000D02*
X9500000D01*
G01D02*
Y3385500D01*
M02*
