G04 ================== begin FILE IDENTIFICATION RECORD ==================*
G04 Layout Name:  PULSE_MODULATION.brd*
G04 Film Name:    SolderT*
G04 File Format:  Gerber RS274X*
G04 File Origin:  Cadence Allegro 17.2-P019*
G04 Origin Date:  Tue Jul 30 17:44:44 2019*
G04 *
G04 Layer:  VIA CLASS/SOLDERMASK_TOP*
G04 Layer:  PIN/SOLDERMASK_TOP*
G04 Layer:  PACKAGE GEOMETRY/SOLDERMASK_TOP*
G04 Layer:  BOARD GEOMETRY/SOLDERMASK_TOP*
G04 *
G04 Offset:    (0.000 0.000)*
G04 Mirror:    No*
G04 Mode:      Positive*
G04 Rotation:  0*
G04 FullContactRelief:  No*
G04 UndefLineWidth:     0.000*
G04 ================== end FILE IDENTIFICATION RECORD ====================*
%FSLAX25Y25*MOMM*%
%IR0*IPPOS*OFA0.00000B0.00000*MIA0B0*SFA1.00000B1.00000*%
%ADD13C,2.032*%
%ADD11C,1.905*%
%ADD10C,3.683*%
%ADD12R,1.905X1.905*%
%ADD15O,1.524X1.016*%
%ADD14R,1.524X1.016*%
%LPD*%
G75*
G54D10*
X500000Y500000D03*
Y6500000D03*
X9500000Y500000D03*
Y6500000D03*
G54D11*
X500000Y2238000D03*
Y2492000D03*
Y3000000D03*
Y2746000D03*
Y3992000D03*
Y4246000D03*
Y4500000D03*
X1778000Y1968500D03*
X1524000Y2730500D03*
X1778000D03*
X1905000Y3937000D03*
X1651000Y4381500D03*
X1905000D03*
X1651000Y5143500D03*
X1905000D03*
X2286000Y1968500D03*
X2032000D03*
Y2730500D03*
X2286000D03*
X2159000Y3937000D03*
Y4381500D03*
X2413000D03*
X2159000Y5143500D03*
X3048000Y2730500D03*
X3302000D03*
X4254500D03*
X3746500D03*
X4000500Y2984500D03*
X4762500Y3683000D03*
X5016500D03*
X4953000Y4381500D03*
Y5143500D03*
X4699000D03*
X5461000Y4381500D03*
X5207000D03*
X5461000Y5143500D03*
X5207000D03*
X6540500Y1968500D03*
X6286500D03*
X6540500Y2730500D03*
X6286500D03*
X6032500D03*
X6540500Y4381500D03*
X6286500D03*
X6540500Y5143500D03*
X6286500D03*
X6032500D03*
X6794500Y1968500D03*
Y2730500D03*
Y4381500D03*
Y5143500D03*
X8382000Y2349500D03*
X8636000Y2603500D03*
X8890000Y2349500D03*
X9500000Y3000000D03*
Y3254000D03*
X8991600Y4953000D03*
G54D12*
X1524000Y1968500D03*
X2413000Y5143500D03*
X4699000Y4381500D03*
X6032500Y1968500D03*
Y4381500D03*
X8001000Y4953000D03*
G54D13*
X1524000Y3365500D03*
X2540000D03*
X3111500D03*
Y3937000D03*
X4127500Y3365500D03*
Y3937000D03*
Y4381500D03*
X3619500D03*
X4127500Y5397500D03*
X3619500D03*
X4762500Y1714500D03*
X5778500D03*
X7620000D03*
X7366000Y3429000D03*
X8001000Y4064000D03*
X8636000Y1714500D03*
X8382000Y3429000D03*
X9017000Y4064000D03*
G54D14*
X4762500Y3111500D03*
G54D15*
Y2984500D03*
Y2857500D03*
M02*
