G04 ================== begin FILE IDENTIFICATION RECORD ==================*
G04 Layout Name:  PULSE_MODULATION.brd*
G04 Film Name:    TOP*
G04 File Format:  Gerber RS274X*
G04 File Origin:  Cadence Allegro 17.2-P019*
G04 Origin Date:  Tue Jul 30 17:44:44 2019*
G04 *
G04 Layer:  ETCH/TOP*
G04 Layer:  PIN/TOP*
G04 Layer:  VIA CLASS/TOP*
G04 *
G04 Offset:    (0.000 0.000)*
G04 Mirror:    No*
G04 Mode:      Positive*
G04 Rotation:  0*
G04 FullContactRelief:  No*
G04 UndefLineWidth:     0.000*
G04 ================== end FILE IDENTIFICATION RECORD ====================*
%FSLAX25Y25*MOMM*%
%IR0*IPPOS*OFA0.00000B0.00000*MIA0B0*SFA1.00000B1.00000*%
%ADD11C,1.524*%
%ADD13C,1.651*%
%ADD12R,1.524X1.524*%
%ADD15O,1.524X1.016*%
%ADD14R,1.524X1.016*%
%ADD10C,.635*%
%ADD16C,1.*%
%ADD17C,.5*%
G75*
%LPD*%
G75*
G54D10*
X500000Y500000D03*
Y6500000D03*
X9500000Y500000D03*
Y6500000D03*
G54D11*
X500000Y2238000D03*
Y2492000D03*
Y3000000D03*
Y2746000D03*
Y3992000D03*
Y4246000D03*
Y4500000D03*
X1778000Y1968500D03*
X1524000Y2730500D03*
X1778000D03*
X1905000Y3937000D03*
X1651000Y4381500D03*
X1905000D03*
X1651000Y5143500D03*
X1905000D03*
X2286000Y1968500D03*
X2032000D03*
Y2730500D03*
X2286000D03*
X2159000Y3937000D03*
Y4381500D03*
X2413000D03*
X2159000Y5143500D03*
X3048000Y2730500D03*
X3302000D03*
X4254500D03*
X3746500D03*
X4000500Y2984500D03*
X4762500Y3683000D03*
X5016500D03*
X4953000Y4381500D03*
Y5143500D03*
X4699000D03*
X5461000Y4381500D03*
X5207000D03*
X5461000Y5143500D03*
X5207000D03*
X6540500Y1968500D03*
X6286500D03*
X6540500Y2730500D03*
X6286500D03*
X6032500D03*
X6540500Y4381500D03*
X6286500D03*
X6540500Y5143500D03*
X6286500D03*
X6032500D03*
X6794500Y1968500D03*
Y2730500D03*
Y4381500D03*
Y5143500D03*
X8382000Y2349500D03*
X8636000Y2603500D03*
X8890000Y2349500D03*
X9500000Y3000000D03*
Y3254000D03*
X8991600Y4953000D03*
G54D12*
X1524000Y1968500D03*
X2413000Y5143500D03*
X4699000Y4381500D03*
X6032500Y1968500D03*
Y4381500D03*
X8001000Y4953000D03*
G54D13*
X1524000Y3365500D03*
X2540000D03*
X3111500D03*
Y3937000D03*
X4127500Y3365500D03*
Y3937000D03*
Y4381500D03*
X3619500D03*
X4127500Y5397500D03*
X3619500D03*
X4762500Y1714500D03*
X5778500D03*
X7620000D03*
X7366000Y3429000D03*
X8001000Y4064000D03*
X8636000Y1714500D03*
X8382000Y3429000D03*
X9017000Y4064000D03*
G54D14*
X4762500Y3111500D03*
G54D15*
Y2984500D03*
Y2857500D03*
G54D16*
G01X1651000Y5143500D02*
X1333500D01*
X1206500Y5016500D01*
Y2380500D01*
X1064000Y2238000D01*
X500000D01*
G01X2413000Y5143500D02*
Y5295100D01*
X2247100Y5461000D01*
X1079500D01*
X889000Y5270500D01*
Y3175000D01*
X714000Y3000000D01*
X500000D01*
G01X1524000Y3365500D02*
Y2730500D01*
G01X3746500D02*
X4000500Y2984500D01*
G01X6794500Y4381500D02*
Y4064000D01*
X6667500Y3937000D01*
X5942000D01*
X5842000Y3837000D01*
Y2413000D01*
X5969000Y2286000D01*
X6667400D01*
X6794500Y2158900D01*
Y1968500D01*
G01X6286500Y5143500D02*
Y4991900D01*
X6388900Y4889500D01*
X7048500D01*
X7208000Y4730000D01*
Y3207500D01*
X7048500Y3048000D01*
X6413500D01*
X6286500Y2921000D01*
Y2730500D01*
G54D17*
G01X1905000Y4381500D02*
Y3937000D01*
G01X4762500Y2857500D02*
X4254500D01*
X4127500Y2984500D01*
Y3365500D01*
G01X4762500Y1714500D02*
Y1968500D01*
X4953000Y2159000D01*
Y3047600D01*
X4889100Y3111500D01*
X4762500D01*
G01D02*
Y3683000D01*
G01X6286500Y4381500D02*
Y4762500D01*
X6159500Y4889500D01*
X5334000D01*
X5207000Y5016500D01*
Y5143500D01*
G01X8636000Y1714500D02*
Y2603500D01*
G01X8890000Y2349500D02*
X8636000Y2603500D01*
G01X8382000Y2349500D02*
Y3429000D01*
G01X9500000Y3000000D02*
X9119400D01*
X9017000Y3102400D01*
Y4064000D01*
G01X8991600Y4953000D02*
Y4222400D01*
X9017000Y4197000D01*
Y4064000D01*
M02*
